<?xml version="1.0" standalone="no"?>
<!DOCTYPE svg PUBLIC "-//W3C//DTD SVG 20010904//EN"
 "http://www.w3.org/TR/2001/REC-SVG-20010904/DTD/svg10.dtd">
<svg version="1.0" xmlns="http://www.w3.org/2000/svg"
 width="700.000000pt" height="700.000000pt" viewBox="0 0 700.000000 700.000000"
 preserveAspectRatio="xMidYMid meet">
<metadata>
Created by potrace 1.14, written by Peter Selinger 2001-2017
</metadata>
<g transform="translate(0.000000,700.000000) scale(0.100000,-0.100000)"
fill="#000000" stroke="none">
<path d="M3105 6690 c-27 -4 -75 -11 -105 -15 -132 -16 -401 -81 -510 -122 -8
-3 -20 -7 -26 -8 -71 -15 -462 -196 -563 -259 -22 -14 -43 -26 -45 -26 -17 0
-264 -174 -381 -269 -124 -100 -300 -269 -390 -376 -27 -32 -59 -69 -70 -81
-114 -128 -265 -359 -387 -594 -96 -185 -201 -466 -244 -652 -5 -21 -10 -43
-18 -78 -11 -48 -37 -203 -50 -305 -25 -188 -26 -662 -2 -805 3 -14 7 -47 11
-75 8 -67 16 -115 30 -177 3 -13 7 -34 10 -48 39 -209 155 -527 285 -777 270
-522 652 -932 1170 -1259 55 -35 59 -37 190 -106 357 -189 767 -311 1195 -354
133 -14 563 -7 652 10 11 3 46 7 78 10 76 9 124 15 155 22 14 3 38 8 53 10 97
12 496 128 532 153 6 4 33 16 60 26 70 25 293 137 395 198 386 231 740 557
996 917 274 386 503 961 549 1380 4 36 9 73 10 82 18 92 25 526 12 683 -9 110
-33 267 -57 375 -6 25 -12 54 -15 65 -54 265 -212 652 -373 920 -50 82 -169
263 -182 275 -3 3 -32 39 -65 80 -137 173 -349 381 -535 526 -78 61 -238 174
-246 174 -3 0 -25 14 -49 30 -24 17 -47 30 -50 30 -4 0 -20 9 -35 20 -34 25
-239 127 -330 165 -257 109 -467 168 -810 230 -52 10 -787 14 -845 5z m475
-411 c144 -81 152 -274 14 -355 -136 -80 -308 31 -292 189 12 113 95 189 202
183 28 -2 63 -9 76 -17z m676 -948 c25 -11 58 -29 73 -41 84 -59 161 -259 155
-406 -8 -225 -107 -446 -274 -614 -69 -70 -101 -94 -170 -127 -100 -49 -155
-61 -240 -57 -202 12 -329 184 -336 455 -1 58 2 126 8 150 5 24 12 55 14 69 9
47 72 181 126 266 83 132 193 238 296 285 108 50 261 58 348 20z m-1322 -354
c152 -70 238 -248 239 -492 1 -226 -80 -424 -232 -573 -208 -202 -445 -183
-581 47 -63 107 -85 195 -85 336 0 146 20 234 80 360 82 171 233 316 358 345
59 14 165 3 221 -23z m2281 -458 c104 -27 190 -90 230 -169 57 -113 54 -275
-10 -425 -47 -112 -164 -255 -280 -342 -247 -186 -584 -221 -753 -79 -43 37
-98 139 -110 202 -42 235 112 520 374 690 185 121 384 165 549 123z m-1935
-894 c166 -18 396 -136 527 -273 182 -188 257 -498 228 -947 -8 -125 -13 -190
-20 -235 -3 -19 -8 -48 -10 -65 -21 -146 -77 -341 -118 -415 -36 -66 -96 -137
-145 -173 -43 -32 -66 -40 -145 -51 -41 -5 -140 15 -186 39 -27 13 -69 44 -93
67 -48 46 -108 121 -108 134 0 4 -6 15 -14 23 -8 9 -49 79 -91 156 -92 167
-144 242 -216 312 -104 100 -227 168 -464 257 -241 90 -332 136 -412 210 -160
146 -160 370 2 532 62 63 209 165 330 229 146 78 445 181 593 204 51 8 253 6
342 -4z m1885 -440 c17 -3 53 -17 80 -29 205 -95 253 -330 115 -560 -46 -77
-147 -177 -238 -237 -69 -46 -195 -101 -258 -114 -232 -47 -414 -6 -536 120
-48 50 -70 121 -67 222 4 132 57 247 165 359 111 114 286 214 429 244 43 9
260 6 310 -5z"/>
</g>
</svg>
